<svg width="841" height="49" viewBox="0 0 841 49" fill="none" xmlns="http://www.w3.org/2000/svg">
<path d="M0.320001 48V3.2H12.032L38.784 33.024L36.544 32.384C36.288 30.6773 36.096 29.1413 35.968 27.776C35.84 26.368 35.712 25.0453 35.584 23.808C35.4987 22.5707 35.4133 21.376 35.328 20.224C35.2853 19.072 35.264 17.8773 35.264 16.64C35.264 15.4027 35.264 14.0587 35.264 12.608V3.2H47.488V48H35.648L7.232 16L11.264 17.088C11.4347 18.1973 11.584 19.2213 11.712 20.16C11.8827 21.0987 12.0107 22.0587 12.096 23.04C12.1813 23.9787 12.2667 25.0027 12.352 26.112C12.4373 27.2213 12.48 28.48 12.48 29.888C12.5227 31.296 12.544 32.896 12.544 34.688V48H0.320001ZM73.2205 48.64C68.7832 48.64 64.9218 47.8933 61.6365 46.4C58.3938 44.864 55.8765 42.752 54.0845 40.064C52.3352 37.376 51.4605 34.3467 51.4605 30.976C51.4605 28.3307 51.9725 25.92 52.9965 23.744C54.0632 21.5253 55.5138 19.648 57.3485 18.112C59.1832 16.5333 61.3165 15.3173 63.7485 14.464C66.2232 13.6107 68.8472 13.184 71.6205 13.184C74.4365 13.184 77.0178 13.6107 79.3645 14.464C81.7538 15.3173 83.8232 16.5333 85.5725 18.112C87.3218 19.648 88.6658 21.4827 89.6045 23.616C90.5432 25.7493 90.9698 28.1173 90.8845 30.72L90.8205 33.6H58.9485L57.4765 27.136H81.2845L80.1325 28.736V27.52C80.0898 26.496 79.6845 25.6213 78.9165 24.896C78.1485 24.1707 77.1458 23.5947 75.9085 23.168C74.7138 22.7413 73.3698 22.528 71.8765 22.528C70.0418 22.528 68.3992 22.8053 66.9485 23.36C65.5405 23.9147 64.4312 24.768 63.6205 25.92C62.8098 27.0293 62.4045 28.3947 62.4045 30.016C62.4045 31.68 62.8738 33.1733 63.8125 34.496C64.7938 35.776 66.2232 36.8 68.1005 37.568C70.0205 38.336 72.2818 38.72 74.8845 38.72C77.2312 38.72 79.1512 38.4853 80.6445 38.016C82.1378 37.504 83.3538 36.928 84.2925 36.288L89.5405 43.84C87.9192 44.9493 86.2125 45.8667 84.4205 46.592C82.6712 47.2747 80.8578 47.7867 78.9805 48.128C77.1032 48.4693 75.1832 48.64 73.2205 48.64ZM102.247 48L90.1505 13.888H102.759L108.967 34.944L107.623 34.816L114.983 17.92H122.471L130.343 34.816L129.127 34.88L135.079 13.888H147.751L135.335 48H126.055L117.543 27.712H120.295L111.463 48H102.247ZM169.013 48V3.2H206.581V13.632H181.173V37.568H207.541V48H169.013ZM175.413 30.208V20.352H204.021V30.208H175.413ZM213.943 48V13.888H225.079L225.719 26.048L222.519 25.344C223.116 23.0827 224.14 21.0347 225.591 19.2C227.041 17.3653 228.748 15.9147 230.711 14.848C232.716 13.7387 234.849 13.184 237.111 13.184C238.348 13.184 239.543 13.312 240.695 13.568C241.847 13.7813 242.849 14.08 243.703 14.464L240.375 27.456C239.692 26.944 238.689 26.5387 237.367 26.24C236.087 25.8987 234.785 25.728 233.463 25.728C232.225 25.728 231.116 25.92 230.135 26.304C229.196 26.688 228.407 27.2213 227.767 27.904C227.127 28.544 226.636 29.2693 226.295 30.08C225.996 30.8907 225.847 31.7867 225.847 32.768V48H213.943ZM260.034 48.576C256.535 48.576 253.463 47.8293 250.818 46.336C248.215 44.8 246.167 42.7093 244.674 40.064C243.223 37.4187 242.498 34.3893 242.498 30.976C242.498 27.4773 243.223 24.4053 244.674 21.76C246.167 19.072 248.237 16.9813 250.882 15.488C253.527 13.952 256.621 13.184 260.162 13.184C262.167 13.184 264.002 13.4187 265.666 13.888C267.33 14.3573 268.802 14.9973 270.082 15.808C271.362 16.6187 272.429 17.5147 273.282 18.496C274.135 19.4773 274.711 20.4373 275.01 21.376L272.322 21.632V13.888H284.034V48H272.066V38.976L274.562 39.616C274.349 40.768 273.815 41.8773 272.962 42.944C272.151 44.0107 271.106 44.9707 269.826 45.824C268.546 46.6773 267.074 47.36 265.41 47.872C263.789 48.3413 261.997 48.576 260.034 48.576ZM263.298 38.784C265.218 38.784 266.839 38.464 268.162 37.824C269.527 37.184 270.573 36.2667 271.298 35.072C272.023 33.8773 272.386 32.512 272.386 30.976C272.386 29.312 272.023 27.904 271.298 26.752C270.573 25.5573 269.527 24.64 268.162 24C266.839 23.36 265.218 23.04 263.298 23.04C261.421 23.04 259.799 23.36 258.434 24C257.111 24.64 256.087 25.5573 255.362 26.752C254.637 27.904 254.274 29.312 254.274 30.976C254.274 32.512 254.637 33.8773 255.362 35.072C256.087 36.2667 257.111 37.184 258.434 37.824C259.799 38.464 261.421 38.784 263.298 38.784ZM330.837 48.64C326.655 48.64 322.901 47.8933 319.573 46.4C316.287 44.864 313.727 42.7733 311.893 40.128C310.058 37.44 309.141 34.368 309.141 30.912C309.141 27.4133 310.058 24.3413 311.893 21.696C313.727 19.0507 316.287 16.9813 319.573 15.488C322.901 13.952 326.655 13.184 330.837 13.184C335.146 13.184 338.922 13.952 342.165 15.488C345.407 16.9813 347.946 19.0507 349.781 21.696C351.658 24.3413 352.597 27.4133 352.597 30.912C352.597 34.368 351.658 37.44 349.781 40.128C347.946 42.7733 345.407 44.864 342.165 46.4C338.922 47.8933 335.146 48.64 330.837 48.64ZM330.901 38.592C332.693 38.592 334.314 38.272 335.765 37.632C337.258 36.992 338.431 36.096 339.285 34.944C340.181 33.7493 340.607 32.4053 340.565 30.912C340.607 29.3333 340.181 27.968 339.285 26.816C338.431 25.664 337.258 24.768 335.765 24.128C334.314 23.488 332.693 23.168 330.901 23.168C329.109 23.168 327.466 23.488 325.973 24.128C324.479 24.768 323.306 25.6853 322.453 26.88C321.599 28.032 321.173 29.376 321.173 30.912C321.173 32.4053 321.599 33.7493 322.453 34.944C323.306 36.096 324.479 36.992 325.973 37.632C327.466 38.272 329.109 38.592 330.901 38.592ZM358.487 48V14.4C358.487 11.6267 359.084 9.19466 360.279 7.104C361.473 4.97066 363.137 3.328 365.271 2.176C367.447 0.981332 369.985 0.383999 372.887 0.383999C375.105 0.383999 377.047 0.661332 378.711 1.216C380.375 1.728 381.804 2.34666 382.999 3.072L379.863 11.648C379.265 11.3493 378.497 11.0507 377.559 10.752C376.663 10.4533 375.745 10.304 374.807 10.304C373.825 10.304 372.972 10.496 372.247 10.88C371.521 11.264 370.988 11.7973 370.647 12.48C370.305 13.1627 370.135 13.9733 370.135 14.912V48H364.375C363.009 48 361.836 48 360.855 48C359.916 48 359.127 48 358.487 48ZM352.279 24.896V15.36H380.567V24.896H352.279ZM427.297 48.64C423.499 48.64 419.979 48.0853 416.737 46.976C413.537 45.8667 410.721 44.288 408.289 42.24C405.899 40.1493 404.043 37.6747 402.721 34.816C401.398 31.9573 400.737 28.8 400.737 25.344C400.737 21.9307 401.419 18.7947 402.785 15.936C404.15 13.0773 406.027 10.624 408.417 8.576C410.806 6.48533 413.601 4.88533 416.801 3.776C420.043 2.624 423.563 2.048 427.361 2.048C429.878 2.048 432.31 2.32533 434.657 2.88C437.046 3.43466 439.265 4.224 441.313 5.248C443.361 6.272 445.153 7.488 446.689 8.896L439.329 18.304C438.433 17.4507 437.387 16.6613 436.193 15.936C434.998 15.2107 433.633 14.6347 432.097 14.208C430.603 13.7813 428.875 13.568 426.913 13.568C425.206 13.568 423.563 13.824 421.985 14.336C420.449 14.848 419.062 15.616 417.825 16.64C416.587 17.6213 415.606 18.8587 414.881 20.352C414.155 21.8027 413.793 23.5093 413.793 25.472C413.793 27.3493 414.155 29.0347 414.881 30.528C415.649 31.9787 416.715 33.216 418.081 34.24C419.446 35.2213 420.982 35.968 422.689 36.48C424.438 36.992 426.294 37.248 428.257 37.248C430.219 37.248 431.969 36.992 433.505 36.48C435.041 35.9253 436.406 35.264 437.601 34.496C438.795 33.6853 439.862 32.9173 440.801 32.192L446.753 41.792C445.558 42.9013 443.937 43.9893 441.889 45.056C439.883 46.08 437.622 46.9333 435.105 47.616C432.587 48.2987 429.985 48.64 427.297 48.64ZM464.104 48.576C460.605 48.576 457.533 47.8293 454.888 46.336C452.285 44.8 450.237 42.7093 448.744 40.064C447.293 37.4187 446.568 34.3893 446.568 30.976C446.568 27.4773 447.293 24.4053 448.744 21.76C450.237 19.072 452.307 16.9813 454.952 15.488C457.597 13.952 460.691 13.184 464.232 13.184C466.237 13.184 468.072 13.4187 469.736 13.888C471.4 14.3573 472.872 14.9973 474.152 15.808C475.432 16.6187 476.499 17.5147 477.352 18.496C478.205 19.4773 478.781 20.4373 479.08 21.376L476.392 21.632V13.888H488.104V48H476.136V38.976L478.632 39.616C478.419 40.768 477.885 41.8773 477.032 42.944C476.221 44.0107 475.176 44.9707 473.896 45.824C472.616 46.6773 471.144 47.36 469.48 47.872C467.859 48.3413 466.067 48.576 464.104 48.576ZM467.368 38.784C469.288 38.784 470.909 38.464 472.232 37.824C473.597 37.184 474.643 36.2667 475.368 35.072C476.093 33.8773 476.456 32.512 476.456 30.976C476.456 29.312 476.093 27.904 475.368 26.752C474.643 25.5573 473.597 24.64 472.232 24C470.909 23.36 469.288 23.04 467.368 23.04C465.491 23.04 463.869 23.36 462.504 24C461.181 24.64 460.157 25.5573 459.432 26.752C458.707 27.904 458.344 29.312 458.344 30.976C458.344 32.512 458.707 33.8773 459.432 35.072C460.157 36.2667 461.181 37.184 462.504 37.824C463.869 38.464 465.491 38.784 467.368 38.784ZM497.203 48V13.888H508.339L508.979 26.048L505.779 25.344C506.376 23.0827 507.4 21.0347 508.851 19.2C510.301 17.3653 512.008 15.9147 513.971 14.848C515.976 13.7387 518.109 13.184 520.371 13.184C521.608 13.184 522.803 13.312 523.955 13.568C525.107 13.7813 526.109 14.08 526.963 14.464L523.635 27.456C522.952 26.944 521.949 26.5387 520.627 26.24C519.347 25.8987 518.045 25.728 516.723 25.728C515.485 25.728 514.376 25.92 513.395 26.304C512.456 26.688 511.667 27.2213 511.027 27.904C510.387 28.544 509.896 29.2693 509.555 30.08C509.256 30.8907 509.107 31.7867 509.107 32.768V48H497.203ZM542.782 48.704C539.369 48.704 536.382 47.9573 533.822 46.464C531.262 44.9707 529.278 42.88 527.87 40.192C526.462 37.504 525.758 34.432 525.758 30.976C525.758 27.4773 526.505 24.4053 527.998 21.76C529.491 19.072 531.561 16.9813 534.206 15.488C536.851 13.952 539.881 13.184 543.294 13.184C545.257 13.184 547.07 13.4187 548.734 13.888C550.398 14.3147 551.87 14.9333 553.15 15.744C554.473 16.512 555.539 17.408 556.35 18.432C557.203 19.4133 557.737 20.4587 557.95 21.568L555.198 22.336V0.639999H567.166V48H556.35L555.518 39.68L557.886 40.384C557.715 41.4933 557.203 42.5387 556.35 43.52C555.497 44.5013 554.387 45.3973 553.022 46.208C551.657 46.976 550.078 47.5733 548.286 48C546.537 48.4693 544.702 48.704 542.782 48.704ZM546.494 38.784C548.414 38.784 550.035 38.464 551.358 37.824C552.723 37.1413 553.747 36.224 554.43 35.072C555.155 33.92 555.518 32.5547 555.518 30.976C555.518 29.3973 555.155 28.032 554.43 26.88C553.747 25.6853 552.723 24.7893 551.358 24.192C550.035 23.552 548.414 23.232 546.494 23.232C544.659 23.232 543.059 23.552 541.694 24.192C540.329 24.7893 539.283 25.6853 538.558 26.88C537.833 28.032 537.47 29.3973 537.47 30.976C537.47 32.5547 537.833 33.92 538.558 35.072C539.283 36.224 540.329 37.1413 541.694 37.824C543.059 38.464 544.659 38.784 546.494 38.784ZM593.84 48V3.2H617.328C620.997 3.2 624.091 3.648 626.608 4.544C629.125 5.44 631.024 6.69866 632.304 8.32C633.627 9.94133 634.288 11.8613 634.288 14.08C634.288 16.6827 633.605 18.8587 632.24 20.608C630.875 22.3573 628.827 23.5733 626.096 24.256L626.16 23.04C628.08 23.4667 629.829 24.1707 631.408 25.152C633.029 26.1333 634.309 27.392 635.248 28.928C636.187 30.4213 636.656 32.2133 636.656 34.304C636.656 36.864 636.123 39.0187 635.056 40.768C634.032 42.5173 632.645 43.9253 630.896 44.992C629.147 46.016 627.205 46.784 625.072 47.296C622.939 47.7653 620.763 48 618.544 48H593.84ZM605.68 37.824H618.544C619.696 37.824 620.699 37.6747 621.552 37.376C622.405 37.0347 623.067 36.5653 623.536 35.968C624.048 35.328 624.304 34.5387 624.304 33.6C624.304 32.576 623.984 31.7867 623.344 31.232C622.747 30.6347 621.979 30.208 621.04 29.952C620.101 29.6533 619.163 29.504 618.224 29.504H605.68V37.824ZM605.68 20.736H616.24C617.435 20.736 618.459 20.5867 619.312 20.288C620.165 19.9893 620.805 19.5627 621.232 19.008C621.701 18.4533 621.936 17.7707 621.936 16.96C621.936 15.7653 621.403 14.8693 620.336 14.272C619.269 13.6747 617.84 13.376 616.048 13.376H605.68V20.736ZM655.266 48.576C651.768 48.576 648.696 47.8293 646.05 46.336C643.448 44.8 641.4 42.7093 639.906 40.064C638.456 37.4187 637.73 34.3893 637.73 30.976C637.73 27.4773 638.456 24.4053 639.906 21.76C641.4 19.072 643.469 16.9813 646.114 15.488C648.76 13.952 651.853 13.184 655.394 13.184C657.4 13.184 659.234 13.4187 660.898 13.888C662.562 14.3573 664.034 14.9973 665.314 15.808C666.594 16.6187 667.661 17.5147 668.514 18.496C669.368 19.4773 669.944 20.4373 670.242 21.376L667.554 21.632V13.888H679.266V48H667.298V38.976L669.794 39.616C669.581 40.768 669.048 41.8773 668.194 42.944C667.384 44.0107 666.338 44.9707 665.058 45.824C663.778 46.6773 662.306 47.36 660.642 47.872C659.021 48.3413 657.229 48.576 655.266 48.576ZM658.53 38.784C660.45 38.784 662.072 38.464 663.394 37.824C664.76 37.184 665.805 36.2667 666.53 35.072C667.256 33.8773 667.618 32.512 667.618 30.976C667.618 29.312 667.256 27.904 666.53 26.752C665.805 25.5573 664.76 24.64 663.394 24C662.072 23.36 660.45 23.04 658.53 23.04C656.653 23.04 655.032 23.36 653.666 24C652.344 24.64 651.32 25.5573 650.594 26.752C649.869 27.904 649.506 29.312 649.506 30.976C649.506 32.512 649.869 33.8773 650.594 35.072C651.32 36.2667 652.344 37.184 653.666 37.824C655.032 38.464 656.653 38.784 658.53 38.784ZM691.437 48V4.16H703.341V48H691.437ZM683.629 24V13.888H712.173V24H683.629ZM721.157 48V4.16H733.061V48H721.157ZM713.349 24V13.888H741.893V24H713.349ZM747.933 48V0.639999H759.837V48H747.933ZM786.058 48.64C781.621 48.64 777.759 47.8933 774.474 46.4C771.231 44.864 768.714 42.752 766.922 40.064C765.173 37.376 764.298 34.3467 764.298 30.976C764.298 28.3307 764.81 25.92 765.834 23.744C766.901 21.5253 768.351 19.648 770.186 18.112C772.021 16.5333 774.154 15.3173 776.586 14.464C779.061 13.6107 781.685 13.184 784.458 13.184C787.274 13.184 789.855 13.6107 792.202 14.464C794.591 15.3173 796.661 16.5333 798.41 18.112C800.159 19.648 801.503 21.4827 802.442 23.616C803.381 25.7493 803.807 28.1173 803.722 30.72L803.658 33.6H771.786L770.314 27.136H794.122L792.97 28.736V27.52C792.927 26.496 792.522 25.6213 791.754 24.896C790.986 24.1707 789.983 23.5947 788.746 23.168C787.551 22.7413 786.207 22.528 784.714 22.528C782.879 22.528 781.237 22.8053 779.786 23.36C778.378 23.9147 777.269 24.768 776.458 25.92C775.647 27.0293 775.242 28.3947 775.242 30.016C775.242 31.68 775.711 33.1733 776.65 34.496C777.631 35.776 779.061 36.8 780.938 37.568C782.858 38.336 785.119 38.72 787.722 38.72C790.069 38.72 791.989 38.4853 793.482 38.016C794.975 37.504 796.191 36.928 797.13 36.288L802.378 43.84C800.757 44.9493 799.05 45.8667 797.258 46.592C795.509 47.2747 793.695 47.7867 791.818 48.128C789.941 48.4693 788.021 48.64 786.058 48.64ZM823.389 48.64C819.208 48.64 815.496 48.0853 812.253 46.976C809.01 45.8667 806.429 44.3093 804.509 42.304L811.549 36.16C812.957 37.44 814.77 38.4427 816.989 39.168C819.25 39.8933 821.64 40.256 824.157 40.256C824.84 40.256 825.48 40.2347 826.077 40.192C826.674 40.1067 827.208 39.9573 827.677 39.744C828.146 39.5307 828.509 39.296 828.765 39.04C829.021 38.784 829.149 38.464 829.149 38.08C829.149 37.44 828.68 36.928 827.741 36.544C827.058 36.3307 826.098 36.1173 824.861 35.904C823.624 35.6907 822.322 35.456 820.957 35.2C818.482 34.7733 816.306 34.304 814.429 33.792C812.594 33.28 811.016 32.576 809.693 31.68C808.498 30.784 807.538 29.7173 806.813 28.48C806.13 27.2427 805.789 25.792 805.789 24.128C805.789 22.3787 806.258 20.8427 807.197 19.52C808.136 18.1547 809.394 17.0027 810.973 16.064C812.552 15.0827 814.365 14.3573 816.413 13.888C818.461 13.4187 820.594 13.184 822.813 13.184C825.074 13.184 827.25 13.376 829.341 13.76C831.474 14.1013 833.501 14.656 835.421 15.424C837.384 16.1493 839.112 17.088 840.605 18.24L834.717 25.216C833.736 24.576 832.562 23.9573 831.197 23.36C829.874 22.7627 828.424 22.272 826.845 21.888C825.266 21.504 823.645 21.312 821.981 21.312C821.298 21.312 820.68 21.3547 820.125 21.44C819.57 21.5253 819.058 21.6533 818.589 21.824C818.12 21.952 817.757 22.1653 817.501 22.464C817.288 22.72 817.181 22.9973 817.181 23.296C817.181 23.5947 817.266 23.872 817.437 24.128C817.65 24.384 817.949 24.6187 818.333 24.832C818.93 25.216 819.848 25.536 821.085 25.792C822.365 26.048 823.901 26.3467 825.693 26.688C828.85 27.2427 831.453 27.904 833.501 28.672C835.549 29.3973 837.128 30.272 838.237 31.296C839.218 32.0213 839.901 32.896 840.285 33.92C840.669 34.9013 840.861 35.968 840.861 37.12C840.861 39.3813 840.136 41.3867 838.685 43.136C837.277 44.8427 835.25 46.1867 832.605 47.168C829.96 48.1493 826.888 48.64 823.389 48.64Z" fill="white"/>
</svg>
